<svg width="969" height="758" viewBox="0 0 969 758" fill="none" xmlns="http://www.w3.org/2000/svg">
<path opacity="0.4" d="M232.867 551.196C235.222 551.196 237.132 549.286 237.132 546.931C237.132 544.575 235.222 542.665 232.867 542.665C230.512 542.665 228.602 544.575 228.602 546.931C228.602 549.286 230.512 551.196 232.867 551.196Z" fill="url(#paint0_linear)"/>
<path opacity="0.4" d="M232.867 689.387C235.222 689.387 237.132 687.477 237.132 685.122C237.132 682.766 235.222 680.857 232.867 680.857C230.512 680.857 228.602 682.766 228.602 685.122C228.602 687.477 230.512 689.387 232.867 689.387Z" fill="url(#paint1_linear)"/>
<path opacity="0.4" d="M154.392 602.378C156.747 602.378 158.657 600.468 158.657 598.112C158.657 595.757 156.747 593.847 154.392 593.847C152.036 593.847 150.127 595.757 150.127 598.112C150.127 600.468 152.036 602.378 154.392 602.378Z" fill="url(#paint2_linear)"/>
<path opacity="0.4" d="M304.518 607.496C306.874 607.496 308.783 605.586 308.783 603.231C308.783 600.875 306.874 598.965 304.518 598.965C302.163 598.965 300.253 600.875 300.253 603.231C300.253 605.586 302.163 607.496 304.518 607.496Z" fill="url(#paint3_linear)"/>
<path opacity="0.4" d="M212.395 633.087C214.751 633.087 216.66 631.177 216.66 628.822C216.66 626.466 214.751 624.556 212.395 624.556C210.04 624.556 208.13 626.466 208.13 628.822C208.13 631.177 210.04 633.087 212.395 633.087Z" fill="url(#paint4_linear)"/>
<path opacity="0.4" d="M309.637 674.032C311.992 674.032 313.902 672.123 313.902 669.767C313.902 667.411 311.992 665.502 309.637 665.502C307.281 665.502 305.372 667.411 305.372 669.767C305.372 672.123 307.281 674.032 309.637 674.032Z" fill="url(#paint5_linear)"/>
<path opacity="0.4" d="M162.922 757.629C165.277 757.629 167.187 755.72 167.187 753.364C167.187 751.009 165.277 749.099 162.922 749.099C160.566 749.099 158.657 751.009 158.657 753.364C158.657 755.72 160.566 757.629 162.922 757.629Z" fill="url(#paint6_linear)"/>
<path opacity="0.4" d="M162.922 477.835C165.277 477.835 167.187 475.925 167.187 473.57C167.187 471.214 165.277 469.305 162.922 469.305C160.566 469.305 158.657 471.214 158.657 473.57C158.657 475.925 160.566 477.835 162.922 477.835Z" fill="url(#paint7_linear)"/>
<path opacity="0.4" d="M4.26497 477.835C6.62044 477.835 8.52993 475.925 8.52993 473.57C8.52993 471.214 6.62044 469.305 4.26497 469.305C1.90949 469.305 0 471.214 0 473.57C0 475.925 1.90949 477.835 4.26497 477.835Z" fill="url(#paint8_linear)"/>
<path opacity="0.4" d="M89.5643 430.065C91.9198 430.065 93.8292 428.156 93.8292 425.8C93.8292 423.444 91.9198 421.535 89.5643 421.535C87.2088 421.535 85.2993 423.444 85.2993 425.8C85.2993 428.156 87.2088 430.065 89.5643 430.065Z" fill="url(#paint9_linear)"/>
<path opacity="0.4" d="M154.392 348.174C156.747 348.174 158.657 346.265 158.657 343.909C158.657 341.553 156.747 339.644 154.392 339.644C152.036 339.644 150.127 341.553 150.127 343.909C150.127 346.265 152.036 348.174 154.392 348.174Z" fill="url(#paint10_linear)"/>
<path opacity="0.4" d="M29.8548 377.177C32.2103 377.177 34.1198 375.268 34.1198 372.912C34.1198 370.556 32.2103 368.647 29.8548 368.647C27.4993 368.647 25.5898 370.556 25.5898 372.912C25.5898 375.268 27.4993 377.177 29.8548 377.177Z" fill="url(#paint11_linear)"/>
<path opacity="0.4" d="M229.455 435.183C231.811 435.183 233.72 433.274 233.72 430.918C233.72 428.563 231.811 426.653 229.455 426.653C227.1 426.653 225.19 428.563 225.19 430.918C225.19 433.274 227.1 435.183 229.455 435.183Z" fill="url(#paint12_linear)"/>
<path opacity="0.4" d="M342.05 373.765C344.406 373.765 346.315 371.855 346.315 369.5C346.315 367.144 344.406 365.235 342.05 365.235C339.695 365.235 337.785 367.144 337.785 369.5C337.785 371.855 339.695 373.765 342.05 373.765Z" fill="url(#paint13_linear)"/>
<path opacity="0.4" d="M323.284 494.896C325.64 494.896 327.549 492.986 327.549 490.63C327.549 488.275 325.64 486.365 323.284 486.365C320.929 486.365 319.019 488.275 319.019 490.63C319.019 492.986 320.929 494.896 323.284 494.896Z" fill="url(#paint14_linear)"/>
<path opacity="0.4" d="M284.047 283.344C286.402 283.344 288.312 281.434 288.312 279.078C288.312 276.723 286.402 274.813 284.047 274.813C281.691 274.813 279.782 276.723 279.782 279.078C279.782 281.434 281.691 283.344 284.047 283.344Z" fill="url(#paint15_linear)"/>
<path opacity="0.4" d="M437.585 237.28C439.941 237.28 441.85 235.37 441.85 233.015C441.85 230.659 439.941 228.75 437.585 228.75C435.23 228.75 433.32 230.659 433.32 233.015C433.32 235.37 435.23 237.28 437.585 237.28Z" fill="url(#paint16_linear)"/>
<path opacity="0.4" d="M613.302 339.644C615.658 339.644 617.567 337.734 617.567 335.379C617.567 333.023 615.658 331.113 613.302 331.113C610.947 331.113 609.037 333.023 609.037 335.379C609.037 337.734 610.947 339.644 613.302 339.644Z" fill="url(#paint17_linear)"/>
<path opacity="0.4" d="M507.531 121.268C509.886 121.268 511.796 119.358 511.796 117.002C511.796 114.647 509.886 112.737 507.531 112.737C505.175 112.737 503.266 114.647 503.266 117.002C503.266 119.358 505.175 121.268 507.531 121.268Z" fill="url(#paint18_linear)"/>
<path opacity="0.4" d="M299.401 78.616C301.756 78.616 303.666 76.7064 303.666 74.3508C303.666 71.9952 301.756 70.0856 299.401 70.0856C297.045 70.0856 295.136 71.9952 295.136 74.3508C295.136 76.7064 297.045 78.616 299.401 78.616Z" fill="url(#paint19_linear)"/>
<path opacity="0.4" d="M840.198 8.66734C842.554 8.66734 844.463 6.75777 844.463 4.40218C844.463 2.0466 842.554 0.137024 840.198 0.137024C837.843 0.137024 835.933 2.0466 835.933 4.40218C835.933 6.75777 837.843 8.66734 840.198 8.66734Z" fill="url(#paint20_linear)"/>
<path opacity="0.4" d="M925.497 85.4402C927.853 85.4402 929.762 83.5306 929.762 81.1751C929.762 78.8195 927.853 76.9099 925.497 76.9099C923.142 76.9099 921.232 78.8195 921.232 81.1751C921.232 83.5306 923.142 85.4402 925.497 85.4402Z" fill="url(#paint21_linear)"/>
<path opacity="0.4" d="M840.198 133.21C842.554 133.21 844.463 131.3 844.463 128.945C844.463 126.589 842.554 124.68 840.198 124.68C837.843 124.68 835.933 126.589 835.933 128.945C835.933 131.3 837.843 133.21 840.198 133.21Z" fill="url(#paint22_linear)"/>
<path opacity="0.4" d="M937.439 213.395C939.795 213.395 941.704 211.485 941.704 209.13C941.704 206.774 939.795 204.865 937.439 204.865C935.084 204.865 933.174 206.774 933.174 209.13C933.174 211.485 935.084 213.395 937.439 213.395Z" fill="url(#paint23_linear)"/>
<path opacity="0.4" d="M879.436 259.459C881.791 259.459 883.701 257.549 883.701 255.194C883.701 252.838 881.791 250.928 879.436 250.928C877.08 250.928 875.171 252.838 875.171 255.194C875.171 257.549 877.08 259.459 879.436 259.459Z" fill="url(#paint24_linear)"/>
<path opacity="0.4" d="M804.372 380.589C806.728 380.589 808.637 378.68 808.637 376.324C808.637 373.969 806.728 372.059 804.372 372.059C802.017 372.059 800.107 373.969 800.107 376.324C800.107 378.68 802.017 380.589 804.372 380.589Z" fill="url(#paint25_linear)"/>
<path opacity="0.4" d="M899.908 459.068C902.263 459.068 904.173 457.159 904.173 454.803C904.173 452.447 902.263 450.538 899.908 450.538C897.552 450.538 895.643 452.447 895.643 454.803C895.643 457.159 897.552 459.068 899.908 459.068Z" fill="url(#paint26_linear)"/>
<path opacity="0.4" d="M899.908 627.968C902.263 627.968 904.173 626.059 904.173 623.703C904.173 621.348 902.263 619.438 899.908 619.438C897.552 619.438 895.643 621.348 895.643 623.703C895.643 626.059 897.552 627.968 899.908 627.968Z" fill="url(#paint27_linear)"/>
<path opacity="0.4" d="M800.961 532.429C803.316 532.429 805.226 530.519 805.226 528.164C805.226 525.808 803.316 523.899 800.961 523.899C798.605 523.899 796.696 525.808 796.696 528.164C796.696 530.519 798.605 532.429 800.961 532.429Z" fill="url(#paint28_linear)"/>
<path opacity="0.4" d="M964.735 532.429C967.09 532.429 969 530.519 969 528.164C969 525.808 967.09 523.899 964.735 523.899C962.379 523.899 960.47 525.808 960.47 528.164C960.47 530.519 962.379 532.429 964.735 532.429Z" fill="url(#paint29_linear)"/>
<path opacity="0.4" d="M964.735 691.093C967.09 691.093 969 689.183 969 686.828C969 684.472 967.09 682.563 964.735 682.563C962.379 682.563 960.47 684.472 960.47 686.828C960.47 689.183 962.379 691.093 964.735 691.093Z" fill="url(#paint30_linear)"/>
<path opacity="0.4" d="M761.723 675.738C764.078 675.738 765.988 673.829 765.988 671.473C765.988 669.118 764.078 667.208 761.723 667.208C759.367 667.208 757.458 669.118 757.458 671.473C757.458 673.829 759.367 675.738 761.723 675.738Z" fill="url(#paint31_linear)"/>
<defs>
<linearGradient id="paint0_linear" x1="229.566" y1="549.694" x2="236.424" y2="544.773" gradientUnits="userSpaceOnUse">
<stop stop-color="white" stop-opacity="0"/>
<stop offset="1" stop-color="white"/>
</linearGradient>
<linearGradient id="paint1_linear" x1="229.566" y1="687.886" x2="236.424" y2="682.964" gradientUnits="userSpaceOnUse">
<stop stop-color="white" stop-opacity="0"/>
<stop offset="1" stop-color="white"/>
</linearGradient>
<linearGradient id="paint2_linear" x1="151.091" y1="600.876" x2="157.949" y2="595.954" gradientUnits="userSpaceOnUse">
<stop stop-color="white" stop-opacity="0"/>
<stop offset="1" stop-color="white"/>
</linearGradient>
<linearGradient id="paint3_linear" x1="301.217" y1="605.994" x2="308.076" y2="601.073" gradientUnits="userSpaceOnUse">
<stop stop-color="white" stop-opacity="0"/>
<stop offset="1" stop-color="white"/>
</linearGradient>
<linearGradient id="paint4_linear" x1="209.094" y1="631.585" x2="215.953" y2="626.664" gradientUnits="userSpaceOnUse">
<stop stop-color="white" stop-opacity="0"/>
<stop offset="1" stop-color="white"/>
</linearGradient>
<linearGradient id="paint5_linear" x1="306.335" y1="672.531" x2="313.194" y2="667.609" gradientUnits="userSpaceOnUse">
<stop stop-color="white" stop-opacity="0"/>
<stop offset="1" stop-color="white"/>
</linearGradient>
<linearGradient id="paint6_linear" x1="159.621" y1="756.128" x2="166.479" y2="751.206" gradientUnits="userSpaceOnUse">
<stop stop-color="white" stop-opacity="0"/>
<stop offset="1" stop-color="white"/>
</linearGradient>
<linearGradient id="paint7_linear" x1="159.621" y1="476.334" x2="166.479" y2="471.412" gradientUnits="userSpaceOnUse">
<stop stop-color="white" stop-opacity="0"/>
<stop offset="1" stop-color="white"/>
</linearGradient>
<linearGradient id="paint8_linear" x1="0.963882" y1="476.334" x2="7.82213" y2="471.412" gradientUnits="userSpaceOnUse">
<stop stop-color="white" stop-opacity="0"/>
<stop offset="1" stop-color="white"/>
</linearGradient>
<linearGradient id="paint9_linear" x1="86.2632" y1="428.564" x2="93.1215" y2="423.642" gradientUnits="userSpaceOnUse">
<stop stop-color="white" stop-opacity="0"/>
<stop offset="1" stop-color="white"/>
</linearGradient>
<linearGradient id="paint10_linear" x1="151.091" y1="346.673" x2="157.949" y2="341.751" gradientUnits="userSpaceOnUse">
<stop stop-color="white" stop-opacity="0"/>
<stop offset="1" stop-color="white"/>
</linearGradient>
<linearGradient id="paint11_linear" x1="26.5537" y1="375.676" x2="33.412" y2="370.754" gradientUnits="userSpaceOnUse">
<stop stop-color="white" stop-opacity="0"/>
<stop offset="1" stop-color="white"/>
</linearGradient>
<linearGradient id="paint12_linear" x1="226.154" y1="433.682" x2="233.012" y2="428.76" gradientUnits="userSpaceOnUse">
<stop stop-color="white" stop-opacity="0"/>
<stop offset="1" stop-color="white"/>
</linearGradient>
<linearGradient id="paint13_linear" x1="338.749" y1="372.264" x2="345.607" y2="367.342" gradientUnits="userSpaceOnUse">
<stop stop-color="white" stop-opacity="0"/>
<stop offset="1" stop-color="white"/>
</linearGradient>
<linearGradient id="paint14_linear" x1="319.983" y1="493.394" x2="326.841" y2="488.473" gradientUnits="userSpaceOnUse">
<stop stop-color="white" stop-opacity="0"/>
<stop offset="1" stop-color="white"/>
</linearGradient>
<linearGradient id="paint15_linear" x1="280.746" y1="281.842" x2="287.604" y2="276.921" gradientUnits="userSpaceOnUse">
<stop stop-color="white" stop-opacity="0"/>
<stop offset="1" stop-color="white"/>
</linearGradient>
<linearGradient id="paint16_linear" x1="434.284" y1="235.779" x2="441.142" y2="230.857" gradientUnits="userSpaceOnUse">
<stop stop-color="white" stop-opacity="0"/>
<stop offset="1" stop-color="white"/>
</linearGradient>
<linearGradient id="paint17_linear" x1="610.001" y1="338.142" x2="616.859" y2="333.221" gradientUnits="userSpaceOnUse">
<stop stop-color="white" stop-opacity="0"/>
<stop offset="1" stop-color="white"/>
</linearGradient>
<linearGradient id="paint18_linear" x1="504.23" y1="119.766" x2="511.088" y2="114.845" gradientUnits="userSpaceOnUse">
<stop stop-color="white" stop-opacity="0"/>
<stop offset="1" stop-color="white"/>
</linearGradient>
<linearGradient id="paint19_linear" x1="296.1" y1="77.1146" x2="302.958" y2="72.1929" gradientUnits="userSpaceOnUse">
<stop stop-color="white" stop-opacity="0"/>
<stop offset="1" stop-color="white"/>
</linearGradient>
<linearGradient id="paint20_linear" x1="836.897" y1="7.16601" x2="843.755" y2="2.24429" gradientUnits="userSpaceOnUse">
<stop stop-color="white" stop-opacity="0"/>
<stop offset="1" stop-color="white"/>
</linearGradient>
<linearGradient id="paint21_linear" x1="922.196" y1="83.9389" x2="929.055" y2="79.0172" gradientUnits="userSpaceOnUse">
<stop stop-color="white" stop-opacity="0"/>
<stop offset="1" stop-color="white"/>
</linearGradient>
<linearGradient id="paint22_linear" x1="836.897" y1="131.709" x2="843.755" y2="126.787" gradientUnits="userSpaceOnUse">
<stop stop-color="white" stop-opacity="0"/>
<stop offset="1" stop-color="white"/>
</linearGradient>
<linearGradient id="paint23_linear" x1="934.138" y1="211.894" x2="940.996" y2="206.972" gradientUnits="userSpaceOnUse">
<stop stop-color="white" stop-opacity="0"/>
<stop offset="1" stop-color="white"/>
</linearGradient>
<linearGradient id="paint24_linear" x1="876.135" y1="257.957" x2="882.993" y2="253.036" gradientUnits="userSpaceOnUse">
<stop stop-color="white" stop-opacity="0"/>
<stop offset="1" stop-color="white"/>
</linearGradient>
<linearGradient id="paint25_linear" x1="801.071" y1="379.088" x2="807.93" y2="374.166" gradientUnits="userSpaceOnUse">
<stop stop-color="white" stop-opacity="0"/>
<stop offset="1" stop-color="white"/>
</linearGradient>
<linearGradient id="paint26_linear" x1="896.606" y1="457.567" x2="903.465" y2="452.645" gradientUnits="userSpaceOnUse">
<stop stop-color="white" stop-opacity="0"/>
<stop offset="1" stop-color="white"/>
</linearGradient>
<linearGradient id="paint27_linear" x1="896.606" y1="626.467" x2="903.465" y2="621.545" gradientUnits="userSpaceOnUse">
<stop stop-color="white" stop-opacity="0"/>
<stop offset="1" stop-color="white"/>
</linearGradient>
<linearGradient id="paint28_linear" x1="797.659" y1="530.928" x2="804.518" y2="526.006" gradientUnits="userSpaceOnUse">
<stop stop-color="white" stop-opacity="0"/>
<stop offset="1" stop-color="white"/>
</linearGradient>
<linearGradient id="paint29_linear" x1="961.434" y1="530.928" x2="968.292" y2="526.006" gradientUnits="userSpaceOnUse">
<stop stop-color="white" stop-opacity="0"/>
<stop offset="1" stop-color="white"/>
</linearGradient>
<linearGradient id="paint30_linear" x1="961.434" y1="689.592" x2="968.292" y2="684.67" gradientUnits="userSpaceOnUse">
<stop stop-color="white" stop-opacity="0"/>
<stop offset="1" stop-color="white"/>
</linearGradient>
<linearGradient id="paint31_linear" x1="758.422" y1="674.237" x2="765.28" y2="669.315" gradientUnits="userSpaceOnUse">
<stop stop-color="white" stop-opacity="0"/>
<stop offset="1" stop-color="white"/>
</linearGradient>
</defs>
</svg>
