<svg width="24" height="24" viewBox="0 0 24 24" fill="none" xmlns="http://www.w3.org/2000/svg">
<g clip-path="url(#clip0)">
<path d="M23.309 14.5469C25.047 6.73689 18.205 -0.358114 10.17 1.00389C5.808 -1.70311 0 1.35589 0 6.54589C0 7.75289 0.333 8.88289 0.912 9.85689C-0.703 17.6849 6.195 24.6779 14.223 23.2229C19.898 26.2239 26.169 20.2389 23.309 14.5469ZM15.671 19.2569C13.563 20.1239 10.094 20.1289 7.995 19.0299C5.002 17.4339 4.47 13.8409 7.052 13.8409C8.998 13.8409 8.382 16.1099 10.347 17.0349C11.249 17.4519 13.188 17.4949 14.315 16.7349C15.428 15.9899 15.326 14.8179 14.721 14.2579C13.118 12.7779 8.531 13.3659 6.434 10.7749C5.523 9.65089 5.351 7.66789 6.471 6.22989C8.423 3.71789 14.151 3.56489 16.614 5.46189C18.888 7.22189 18.274 9.55789 16.439 9.55789C14.232 9.55789 15.392 6.66989 11.829 6.66989C9.246 6.66989 8.23 8.50689 10.049 9.40089C12.515 10.6259 18.799 10.2169 18.799 15.0039C18.794 16.9959 17.573 18.4809 15.671 19.2569Z" fill="#384262" fill-opacity="0.5"/>
</g>
<defs>
<clipPath id="clip0">
<rect width="24" height="24" fill="white"/>
</clipPath>
</defs>
</svg>
