<svg width="24" height="24" viewBox="0 0 24 24" fill="none" xmlns="http://www.w3.org/2000/svg">
<rect width="24" height="24" fill="white"/>
<path d="M18.5608 12.8594C17.457 12.8594 16.4227 12.3926 15.483 11.6327L15.7118 10.56L15.7218 10.5202C15.9255 9.37806 16.5719 7.46087 18.5608 7.46087C20.0523 7.46087 21.2655 8.67274 21.2655 10.1626C21.2605 11.6476 20.0474 12.8594 18.5608 12.8594ZM18.5608 4.72442C16.02 4.72442 14.0511 6.37329 13.2507 9.08496C12.0275 7.25231 11.1027 5.05223 10.5608 3.19971H7.8262V10.3066C7.8262 11.7072 6.68261 12.8494 5.28049 12.8494C3.87836 12.8494 2.73491 11.7072 2.73491 10.3066V3.19971H3.11866e-05V10.3066C-0.00991767 13.2171 2.36176 15.6058 5.27532 15.6058C8.189 15.6058 10.5607 13.2171 10.5607 10.3066V9.11477C11.0926 10.2222 11.7439 11.3396 12.5345 12.333L10.8589 20.1997H13.6582L14.8713 14.4933C15.9353 15.1737 17.1585 15.6009 18.5606 15.6009C21.5587 15.6009 24 13.1475 24 10.1527C24 7.16287 21.5587 4.72442 18.5606 4.72442H18.5608Z" fill="#384262" fill-opacity="0.5"/>
</svg>
