<svg width="16" height="16" viewBox="0 0 16 16" fill="none" xmlns="http://www.w3.org/2000/svg">
<g clip-path="url(#clip0)">
<path d="M15.9849 4.70398C15.9474 3.85384 15.81 3.26938 15.613 2.76293C15.4099 2.22535 15.0973 1.74405 14.6878 1.34395C14.2877 0.937622 13.8032 0.621887 13.2719 0.421896C12.7625 0.224959 12.1811 0.0874805 11.3309 0.0499976C10.4744 0.00934021 10.2025 -6.10352e-05 8.03025 -6.10352e-05C5.85795 -6.10352e-05 5.58604 0.00934021 4.73273 0.0468231C3.88259 0.084306 3.29812 0.221906 2.7918 0.418722C2.2541 0.621887 1.7728 0.934448 1.3727 1.34395C0.966369 1.74405 0.650756 2.22852 0.450644 2.75988C0.253706 3.26938 0.116228 3.85067 0.0787451 4.70081C0.0380878 5.5573 0.0286865 5.8292 0.0286865 8.0015C0.0286865 10.1738 0.0380878 10.4457 0.0755707 11.299C0.113054 12.1492 0.250654 12.7336 0.447591 13.2401C0.650756 13.7777 0.966369 14.259 1.3727 14.6591C1.7728 15.0654 2.25727 15.3811 2.78862 15.5811C3.29812 15.778 3.87941 15.9155 4.72968 15.953C5.58287 15.9906 5.8549 15.9999 8.02719 15.9999C10.1995 15.9999 10.4714 15.9906 11.3247 15.953C12.1749 15.9155 12.7593 15.778 13.2656 15.5811C14.3409 15.1654 15.1911 14.3152 15.6068 13.2401C15.8036 12.7306 15.9412 12.1492 15.9787 11.299C16.0162 10.4457 16.0256 10.1738 16.0256 8.0015C16.0256 5.8292 16.0224 5.5573 15.9849 4.70398ZM14.5441 11.2365C14.5097 12.0179 14.3784 12.4399 14.269 12.7212C14.0002 13.4182 13.447 13.9714 12.7499 14.2403C12.4686 14.3497 12.0436 14.4809 11.2653 14.5152C10.4213 14.5528 10.1682 14.5621 8.03342 14.5621C5.8986 14.5621 5.64233 14.5528 4.80147 14.5152C4.02006 14.4809 3.59811 14.3497 3.3168 14.2403C2.96993 14.1121 2.6542 13.9089 2.39792 13.6432C2.13225 13.3838 1.92908 13.0712 1.80088 12.7243C1.69149 12.443 1.56024 12.0179 1.52593 11.2397C1.48832 10.3958 1.47904 10.1425 1.47904 8.00773C1.47904 5.87291 1.48832 5.61664 1.52593 4.7759C1.56024 3.99449 1.69149 3.57254 1.80088 3.29123C1.92908 2.94424 2.13225 2.62863 2.4011 2.37223C2.66042 2.10655 2.97299 1.90339 3.31998 1.77531C3.60128 1.66591 4.02641 1.53466 4.80464 1.50023C5.64856 1.46275 5.90178 1.45335 8.03647 1.45335C10.1745 1.45335 10.4276 1.46275 11.2684 1.50023C12.0498 1.53466 12.4718 1.66591 12.7531 1.77531C13.1 1.90339 13.4157 2.10655 13.672 2.37223C13.9376 2.63168 14.1408 2.94424 14.269 3.29123C14.3784 3.57254 14.5097 3.99755 14.5441 4.7759C14.5816 5.61981 14.591 5.87291 14.591 8.00773C14.591 10.1425 14.5816 10.3926 14.5441 11.2365Z" fill="#384262"/>
<path d="M8.03034 3.8913C5.76122 3.8913 3.92017 5.73223 3.92017 8.00147C3.92017 10.2707 5.76122 12.1117 8.03034 12.1117C10.2996 12.1117 12.1405 10.2707 12.1405 8.00147C12.1405 5.73223 10.2996 3.8913 8.03034 3.8913ZM8.03034 10.6676C6.55825 10.6676 5.36417 9.47369 5.36417 8.00147C5.36417 6.52926 6.55825 5.3353 8.03034 5.3353C9.50255 5.3353 10.6965 6.52926 10.6965 8.00147C10.6965 9.47369 9.50255 10.6676 8.03034 10.6676Z" fill="#384262"/>
<path d="M13.2626 3.72883C13.2626 4.25872 12.8329 4.68836 12.3029 4.68836C11.773 4.68836 11.3434 4.25872 11.3434 3.72883C11.3434 3.19881 11.773 2.76929 12.3029 2.76929C12.8329 2.76929 13.2626 3.19881 13.2626 3.72883Z" fill="#384262"/>
</g>
<defs>
<clipPath id="clip0">
<rect width="16" height="16" fill="white" transform="translate(0.000610352)"/>
</clipPath>
</defs>
</svg>
