<svg width="16" height="16" viewBox="0 0 16 16" fill="none" xmlns="http://www.w3.org/2000/svg">
<rect x="0.000610352" y="-6.10352e-05" width="16" height="16" fill="white"/>
<path d="M12.3744 8.57312C11.6386 8.57312 10.9491 8.26192 10.3226 7.75531L10.4751 7.04015L10.4818 7.01365C10.6176 6.2522 11.0486 4.97408 12.3744 4.97408C13.3688 4.97408 14.1776 5.78199 14.1776 6.77523C14.1743 7.76521 13.3655 8.57312 12.3744 8.57312ZM12.3744 3.14978C10.6806 3.14978 9.36804 4.24902 8.83442 6.0568C8.01897 4.83504 7.40241 3.36832 7.04115 2.1333H5.21808V6.87125C5.21808 7.80496 4.45569 8.56641 3.52094 8.56641C2.58619 8.56641 1.82388 7.80496 1.82388 6.87125V2.1333H0.000631143V6.87125C-0.00600143 8.81154 1.57512 10.404 3.51749 10.404C5.45995 10.404 7.04106 8.81154 7.04106 6.87125V6.07668C7.39569 6.81498 7.8299 7.55992 8.35697 8.22217L7.23986 13.4666H9.10609L9.91483 9.66239C10.6242 10.116 11.4396 10.4008 12.3744 10.4008C14.3731 10.4008 16.0006 8.76516 16.0006 6.76861C16.0006 4.77541 14.3731 3.14978 12.3744 3.14978H12.3744Z" fill="#384262"/>
</svg>
